<?xml version="1.0" standalone="no"?>
<!DOCTYPE svg PUBLIC "-//W3C//DTD SVG 20010904//EN"
 "http://www.w3.org/TR/2001/REC-SVG-20010904/DTD/svg10.dtd">
<svg version="1.0" xmlns="http://www.w3.org/2000/svg"
 width="512.000000pt" height="512.000000pt" viewBox="0 0 512.000000 512.000000"
 preserveAspectRatio="xMidYMid meet">

<g transform="translate(0.000000,512.000000) scale(0.100000,-0.100000)"
fill="#fff" stroke="none">
<path d="M3961 5094 c-31 -39 -39 -109 -45 -359 -5 -241 -12 -296 -63 -470
-15 -49 -28 -92 -29 -93 -2 -2 -20 -1 -41 2 l-38 7 0 192 c-1 219 -23 398 -57
459 -35 62 -67 61 -93 -5 -14 -35 -19 -96 -26 -342 -4 -165 -12 -334 -18 -375
-5 -41 -15 -124 -22 -185 -6 -60 -20 -143 -30 -183 -17 -68 -84 -212 -98 -212
-3 0 -6 35 -6 77 0 72 -2 78 -21 81 -27 4 -99 -65 -137 -130 -15 -27 -55 -130
-87 -229 -33 -100 -74 -206 -91 -235 -49 -87 -257 -260 -388 -324 -36 -18
-102 -45 -147 -60 -110 -36 -149 -60 -312 -197 -77 -65 -155 -127 -173 -137
l-32 -19 7 39 c4 21 9 71 13 110 5 65 3 77 -31 162 -21 51 -44 116 -53 145
-23 79 -48 121 -111 191 -32 35 -64 81 -70 102 -7 22 -17 101 -22 178 -5 76
-15 145 -21 152 -16 19 -39 18 -99 -6 -28 -11 -55 -20 -60 -20 -6 0 -10 41
-10 94 0 86 -2 98 -24 123 -23 26 -29 28 -122 30 -59 2 -101 8 -105 15 -4 6
-10 52 -14 102 -7 88 -9 92 -44 126 -63 60 -230 105 -364 99 l-74 -4 -17 119
c-28 200 -48 217 -109 89 l-42 -88 -7 155 c-8 172 -15 200 -52 200 -40 0 -80
-84 -106 -225 -21 -117 -20 -116 -40 -53 -9 31 -28 98 -40 148 -34 140 -92
186 -153 122 -25 -26 -27 -35 -27 -109 0 -67 7 -100 40 -201 52 -156 69 -194
122 -278 l43 -69 0 -105 1 -105 51 -51 c37 -37 89 -71 193 -124 77 -40 159
-87 180 -105 44 -36 164 -180 197 -235 29 -48 60 -158 74 -265 8 -66 27 -130
70 -243 33 -84 59 -156 59 -160 0 -5 -33 -23 -72 -42 -233 -111 -375 -270
-393 -441 -16 -153 65 -438 137 -483 22 -14 26 -9 44 60 30 116 117 214 190
214 47 0 127 -21 173 -44 83 -44 160 -143 161 -208 0 -36 -38 -79 -113 -126
-113 -73 -142 -119 -168 -277 -16 -96 -33 -133 -66 -146 -40 -17 -166 -14
-328 6 -145 17 -217 15 -265 -10 -34 -18 -40 -32 -40 -102 0 -108 34 -163 101
-163 20 0 21 1 6 18 -49 54 -33 124 33 142 27 7 49 6 84 -4 70 -21 76 -29 76
-105 0 -62 10 -91 32 -91 4 0 8 9 8 19 0 47 115 111 198 111 42 0 54 -130 17
-187 -21 -32 -74 -44 -147 -32 -33 5 -63 7 -67 3 -11 -12 69 -72 111 -82 82
-21 190 25 230 98 15 28 18 51 16 111 l-3 77 115 32 c136 37 197 64 280 120
70 47 156 90 184 90 24 0 20 -14 -50 -191 -56 -143 -74 -211 -74 -284 l0 -41
-62 -12 c-35 -7 -108 -19 -164 -26 -141 -21 -207 -48 -270 -111 -68 -68 -98
-126 -91 -178 9 -69 61 -101 118 -71 31 15 31 16 10 30 -49 35 -13 107 75 149
47 22 120 16 163 -14 27 -19 31 -29 31 -66 0 -52 -27 -79 -97 -96 -24 -6 -43
-15 -43 -19 0 -15 66 -35 117 -35 46 0 56 4 89 35 42 40 73 102 74 145 0 48
25 75 69 75 48 0 78 -30 87 -88 7 -47 29 -56 57 -24 34 37 8 151 -38 168 -36
14 6 22 151 29 144 7 158 9 184 31 27 23 60 97 60 135 0 26 28 49 59 49 36 0
44 -10 70 -84 11 -33 26 -63 33 -68 22 -13 60 -9 125 14 86 31 116 21 123 -42
l5 -45 65 -6 c92 -10 142 -24 242 -71 48 -22 93 -38 101 -35 8 3 24 31 37 64
13 32 27 63 32 68 7 6 32 -14 72 -59 75 -81 78 -81 177 4 67 58 68 58 146 64
249 19 329 29 357 43 56 29 154 137 186 205 52 109 42 141 -80 254 -85 79
-244 171 -430 249 -36 15 -93 40 -128 56 -35 16 -65 29 -67 29 -2 0 -33 20
-68 45 -35 24 -117 75 -183 113 l-119 68 1 60 c1 58 38 194 54 194 4 0 29 -17
56 -39 98 -77 148 -89 189 -45 14 15 25 30 25 34 0 4 39 10 88 12 134 7 255
58 361 151 53 45 95 58 222 67 74 5 131 15 153 25 38 18 243 192 336 285 48
47 62 71 99 165 24 61 57 134 74 163 36 64 33 105 -13 168 l-30 43 56 53 c118
112 206 259 226 381 8 52 8 78 -5 133 -8 38 -15 69 -14 69 1 1 25 10 52 21
l50 20 3 74 c5 99 -12 169 -54 231 -19 28 -34 53 -34 56 0 3 9 16 20 30 11 14
20 39 20 54 0 32 -18 37 -66 19 -15 -6 -29 -9 -31 -7 -2 3 23 42 56 88 l61 84
-1 110 c-2 183 -9 195 -108 179 -34 -6 -61 -7 -61 -3 0 4 19 33 43 65 90 124
109 161 97 184 -24 44 -100 -1 -240 -142 -105 -107 -104 -110 -34 93 49 141
52 167 25 200 l-19 24 -29 -21 c-16 -12 -53 -68 -86 -130 -59 -110 -105 -179
-114 -171 -7 7 31 193 78 381 41 169 46 216 26 256 -19 38 -43 36 -82 -7 -55
-58 -101 -162 -151 -338 -44 -158 -94 -284 -120 -306 -11 -9 -14 -3 -14 32 0
104 -22 443 -35 543 -19 148 -48 188 -94 130z"/>
</g>
</svg>
